<svg xmlns="http://www.w3.org/2000/svg" width="256" height="256" viewBox="0 0 24 24" fill="none"><path fill="url(#a)" fill-rule="evenodd" d="M24 12a12 12 0 0 1-12 12H2.6c-.7 0-1-.8-.6-1.3L4 21a12 12 0 0 1 8-21 12 12 0 0 1 12 12Zm-8.3-8c.2 0 .5.2.5.5l.3.8a2 2 0 0 0 1.4 1.5l.9.2c.2 0 .4.3.4.5 0 .3-.2.5-.4.6l-.9.2a2 2 0 0 0-1.4 1.5l-.3.8c0 .2-.3.4-.5.4a.6.6 0 0 1-.6-.4l-.2-.8a2 2 0 0 0-1.5-1.5l-.8-.2a.6.6 0 0 1-.4-.6c0-.2.1-.5.4-.5l.8-.2A2 2 0 0 0 15 5.3l.2-.8c0-.3.3-.5.6-.5Zm-7 2.4c.2 0 .4.1.5.4L9.8 9a3 3 0 0 0 2 2l2.3.6c.2 0 .4.3.4.5 0 .3-.2.5-.4.6l-2.2.6a3 3 0 0 0-2 2l-.7 2.2c0 .3-.3.4-.6.4a.6.6 0 0 1-.5-.4l-.7-2.2a3 3 0 0 0-2-2l-2.2-.6a.6.6 0 0 1-.4-.6c0-.2.1-.4.4-.5l2.2-.6a3 3 0 0 0 2-2l.7-2.2c0-.3.3-.4.5-.4Zm6.4 8.5c-.1-.3-.3-.4-.6-.4-.2 0-.5.1-.5.4l-.4.9c0 .3-.3.6-.7.7l-1 .3c-.2 0-.3.3-.3.6 0 .2.1.4.4.5l.9.3c.4.1.6.4.7.7l.4 1c0 .2.3.3.5.3.3 0 .5-.1.6-.3l.3-1c0-.3.4-.6.7-.7l1-.3c.2 0 .3-.3.3-.5 0-.3-.1-.5-.4-.6l-.9-.3c-.3-.1-.6-.4-.7-.7l-.3-1Z" clip-rule="evenodd"/><path fill="url(#b)" fill-rule="evenodd" d="M24 12a12 12 0 0 1-12 12H2.6c-.7 0-1-.8-.6-1.3L4 21a12 12 0 0 1 8-21 12 12 0 0 1 12 12Zm-8.3-8c.2 0 .5.2.5.5l.3.8a2 2 0 0 0 1.4 1.5l.9.2c.2 0 .4.3.4.5 0 .3-.2.5-.4.6l-.9.2a2 2 0 0 0-1.4 1.5l-.3.8c0 .2-.3.4-.5.4a.6.6 0 0 1-.6-.4l-.2-.8a2 2 0 0 0-1.5-1.5l-.8-.2a.6.6 0 0 1-.4-.6c0-.2.1-.5.4-.5l.8-.2A2 2 0 0 0 15 5.3l.2-.8c0-.3.3-.5.6-.5Zm-7 2.4c.2 0 .4.1.5.4L9.8 9a3 3 0 0 0 2 2l2.3.6c.2 0 .4.3.4.5 0 .3-.2.5-.4.6l-2.2.6a3 3 0 0 0-2 2l-.7 2.2c0 .3-.3.4-.6.4a.6.6 0 0 1-.5-.4l-.7-2.2a3 3 0 0 0-2-2l-2.2-.6a.6.6 0 0 1-.4-.6c0-.2.1-.4.4-.5l2.2-.6a3 3 0 0 0 2-2l.7-2.2c0-.3.3-.4.5-.4Zm6.4 8.5c-.1-.3-.3-.4-.6-.4-.2 0-.5.1-.5.4l-.4.9c0 .3-.3.6-.7.7l-1 .3c-.2 0-.3.3-.3.6 0 .2.1.4.4.5l.9.3c.4.1.6.4.7.7l.4 1c0 .2.3.3.5.3.3 0 .5-.1.6-.3l.3-1c0-.3.4-.6.7-.7l1-.3c.2 0 .3-.3.3-.5 0-.3-.1-.5-.4-.6l-.9-.3c-.3-.1-.6-.4-.7-.7l-.3-1Z" clip-rule="evenodd"/><defs><linearGradient id="a" x1="19.2" x2="-4.1" y1="3.7" y2="11.2" gradientUnits="userSpaceOnUse"><stop stop-color="#3BA39A"/><stop offset="1" stop-color="#191654"/></linearGradient><linearGradient id="b" x1="-8.6" x2="30.8" y1="27.8" y2="3" gradientUnits="userSpaceOnUse"><stop stop-color="#0E1EA3"/><stop offset=".5" stop-color="#33A4A2"/><stop offset="1" stop-color="#299D36"/></linearGradient></defs></svg>
